<mxfile host="app.diagrams.net" modified="2022-03-18T15:03:35.570Z" agent="5.0 (X11; Linux x86_64) AppleWebKit/537.36 (KHTML, like Gecko) Chrome/99.0.4844.51 Safari/537.36" etag="OSrnFkRtslCKa6KvNRhb" version="17.1.3" type="github">
  <diagram id="l8GZD-PjS2XNyEZaUENU" name="Page-1">
    <mxGraphModel dx="1001" dy="576" grid="1" gridSize="10" guides="1" tooltips="1" connect="1" arrows="1" fold="1" page="1" pageScale="1" pageWidth="850" pageHeight="1100" math="0" shadow="0">
      <root>
        <mxCell id="0" />
        <mxCell id="1" parent="0" />
        <mxCell id="pXCMp1-Q90rH2oVFQ7kp-8" value="Resource&lt;br&gt;Camada de recursos." style="rounded=1;whiteSpace=wrap;html=1;" vertex="1" parent="1">
          <mxGeometry x="430" y="330" width="120" height="60" as="geometry" />
        </mxCell>
        <mxCell id="pXCMp1-Q90rH2oVFQ7kp-9" value="Controller&lt;br&gt;Camada de controle de acesso." style="rounded=1;whiteSpace=wrap;html=1;" vertex="1" parent="1">
          <mxGeometry x="617" y="450" width="120" height="60" as="geometry" />
        </mxCell>
        <mxCell id="pXCMp1-Q90rH2oVFQ7kp-11" value="Core&lt;br&gt;O core é onde iremos conectar a model com o banco de dados. As outras etapas não acessam a model ou o banco diretamente." style="rounded=1;whiteSpace=wrap;html=1;" vertex="1" parent="1">
          <mxGeometry x="595" y="555" width="163" height="90" as="geometry" />
        </mxCell>
        <mxCell id="pXCMp1-Q90rH2oVFQ7kp-14" value="Aqui é onde declaramos as rotas de acesso para nossa API, as chamadas do client são recebidas aqui.&lt;br&gt;&lt;br&gt;&amp;nbsp;CRUD(Create, Retrieve, Update, Delete)" style="shape=callout;whiteSpace=wrap;html=1;perimeter=calloutPerimeter;strokeColor=#A9C4EB;" vertex="1" parent="1">
          <mxGeometry x="340" y="210" width="295" height="120" as="geometry" />
        </mxCell>
        <mxCell id="pXCMp1-Q90rH2oVFQ7kp-15" value="Client (front-end)" style="rounded=1;whiteSpace=wrap;html=1;" vertex="1" parent="1">
          <mxGeometry x="210" y="330" width="120" height="60" as="geometry" />
        </mxCell>
        <mxCell id="pXCMp1-Q90rH2oVFQ7kp-22" value="" style="endArrow=classic;startArrow=classic;html=1;rounded=0;exitX=1;exitY=0.5;exitDx=0;exitDy=0;entryX=0;entryY=0.5;entryDx=0;entryDy=0;" edge="1" parent="1" source="pXCMp1-Q90rH2oVFQ7kp-15" target="pXCMp1-Q90rH2oVFQ7kp-8">
          <mxGeometry width="50" height="50" relative="1" as="geometry">
            <mxPoint x="340" y="349.79" as="sourcePoint" />
            <mxPoint x="410" y="349.79" as="targetPoint" />
            <Array as="points">
              <mxPoint x="340" y="360" />
            </Array>
          </mxGeometry>
        </mxCell>
        <mxCell id="pXCMp1-Q90rH2oVFQ7kp-25" value="" style="dashed=0;outlineConnect=0;html=1;align=center;labelPosition=center;verticalLabelPosition=bottom;verticalAlign=top;shape=mxgraph.weblogos.json;strokeColor=#A9C4EB;" vertex="1" parent="1">
          <mxGeometry x="590" y="341.05" width="35" height="37.9" as="geometry" />
        </mxCell>
        <mxCell id="pXCMp1-Q90rH2oVFQ7kp-27" value="DTO(Data Transfer Object)&lt;br&gt;&lt;br&gt;Um objeto de transferência de dados garante que os mesmos sejam processados pela api e respeitem a estrutura de dados esperada, uma instancia da classe é criada a partir do que foi enviado na requisição." style="rounded=1;whiteSpace=wrap;html=1;" vertex="1" parent="1">
          <mxGeometry x="750" y="295.71000000000004" width="240" height="128.57" as="geometry" />
        </mxCell>
        <mxCell id="pXCMp1-Q90rH2oVFQ7kp-28" value="" style="endArrow=classic;html=1;rounded=0;entryX=1;entryY=0.5;entryDx=0;entryDy=0;" edge="1" parent="1" target="pXCMp1-Q90rH2oVFQ7kp-31">
          <mxGeometry width="50" height="50" relative="1" as="geometry">
            <mxPoint x="750" y="360" as="sourcePoint" />
            <mxPoint x="710" y="350" as="targetPoint" />
          </mxGeometry>
        </mxCell>
        <mxCell id="pXCMp1-Q90rH2oVFQ7kp-29" value="" style="endArrow=classic;html=1;rounded=0;exitX=1;exitY=0.5;exitDx=0;exitDy=0;" edge="1" parent="1" source="pXCMp1-Q90rH2oVFQ7kp-8" target="pXCMp1-Q90rH2oVFQ7kp-25">
          <mxGeometry width="50" height="50" relative="1" as="geometry">
            <mxPoint x="490" y="410" as="sourcePoint" />
            <mxPoint x="540" y="360" as="targetPoint" />
          </mxGeometry>
        </mxCell>
        <mxCell id="pXCMp1-Q90rH2oVFQ7kp-30" value="" style="endArrow=classic;html=1;rounded=0;entryX=0;entryY=0.5;entryDx=0;entryDy=0;" edge="1" parent="1" source="pXCMp1-Q90rH2oVFQ7kp-25" target="pXCMp1-Q90rH2oVFQ7kp-31">
          <mxGeometry width="50" height="50" relative="1" as="geometry">
            <mxPoint x="630" y="360" as="sourcePoint" />
            <mxPoint x="640" y="360" as="targetPoint" />
          </mxGeometry>
        </mxCell>
        <mxCell id="pXCMp1-Q90rH2oVFQ7kp-31" value="" style="shape=image;html=1;verticalAlign=top;verticalLabelPosition=bottom;labelBackgroundColor=#ffffff;imageAspect=0;aspect=fixed;image=https://cdn4.iconfinder.com/data/icons/business-black-1/64/30-128.png;strokeColor=#A9C4EB;" vertex="1" parent="1">
          <mxGeometry x="660" y="343" width="34" height="34" as="geometry" />
        </mxCell>
        <mxCell id="pXCMp1-Q90rH2oVFQ7kp-33" value="" style="sketch=0;outlineConnect=0;fontColor=#232F3E;gradientColor=none;strokeColor=#232F3E;fillColor=#ffffff;dashed=0;verticalLabelPosition=bottom;verticalAlign=top;align=center;html=1;fontSize=12;fontStyle=0;aspect=fixed;shape=mxgraph.aws4.resourceIcon;resIcon=mxgraph.aws4.data_encryption_key;" vertex="1" parent="1">
          <mxGeometry x="476.25" y="400.36" width="47.5" height="47.5" as="geometry" />
        </mxCell>
        <mxCell id="pXCMp1-Q90rH2oVFQ7kp-35" value="" style="endArrow=classic;html=1;rounded=0;exitX=0.5;exitY=1;exitDx=0;exitDy=0;entryX=0.5;entryY=0;entryDx=0;entryDy=0;" edge="1" parent="1" source="pXCMp1-Q90rH2oVFQ7kp-31" target="pXCMp1-Q90rH2oVFQ7kp-9">
          <mxGeometry width="50" height="50" relative="1" as="geometry">
            <mxPoint x="687" y="431" as="sourcePoint" />
            <mxPoint x="677" y="420" as="targetPoint" />
          </mxGeometry>
        </mxCell>
        <mxCell id="pXCMp1-Q90rH2oVFQ7kp-36" value="Aqui acontece o tratamento de excessões." style="shape=callout;whiteSpace=wrap;html=1;perimeter=calloutPerimeter;strokeColor=#A9C4EB;direction=south;position2=0.47;base=22;size=30;position=0.31;" vertex="1" parent="1">
          <mxGeometry x="737.25" y="447.86" width="193" height="64.29" as="geometry" />
        </mxCell>
        <mxCell id="pXCMp1-Q90rH2oVFQ7kp-38" value="" style="endArrow=classic;html=1;rounded=0;exitX=0.5;exitY=1;exitDx=0;exitDy=0;entryX=0.5;entryY=0;entryDx=0;entryDy=0;" edge="1" parent="1" source="pXCMp1-Q90rH2oVFQ7kp-9" target="pXCMp1-Q90rH2oVFQ7kp-11">
          <mxGeometry width="50" height="50" relative="1" as="geometry">
            <mxPoint x="687" y="386.9999999999999" as="sourcePoint" />
            <mxPoint x="687" y="460" as="targetPoint" />
          </mxGeometry>
        </mxCell>
        <mxCell id="pXCMp1-Q90rH2oVFQ7kp-41" value="" style="outlineConnect=0;dashed=0;verticalLabelPosition=bottom;verticalAlign=top;align=center;html=1;shape=mxgraph.aws3.generic_database;fillColor=#7D7C7C;gradientColor=none;strokeColor=#A9C4EB;" vertex="1" parent="1">
          <mxGeometry x="480.25" y="660" width="39.5" height="60" as="geometry" />
        </mxCell>
        <mxCell id="pXCMp1-Q90rH2oVFQ7kp-42" value="" style="endArrow=classic;html=1;rounded=0;exitX=0;exitY=0.5;exitDx=0;exitDy=0;" edge="1" parent="1" source="pXCMp1-Q90rH2oVFQ7kp-11">
          <mxGeometry width="50" height="50" relative="1" as="geometry">
            <mxPoint x="687" y="520" as="sourcePoint" />
            <mxPoint x="560" y="600" as="targetPoint" />
          </mxGeometry>
        </mxCell>
        <mxCell id="pXCMp1-Q90rH2oVFQ7kp-43" value="Repository strategy" style="rounded=1;whiteSpace=wrap;html=1;" vertex="1" parent="1">
          <mxGeometry x="440" y="570" width="120" height="60" as="geometry" />
        </mxCell>
        <mxCell id="pXCMp1-Q90rH2oVFQ7kp-44" value="" style="endArrow=classic;html=1;rounded=0;exitX=0.5;exitY=1;exitDx=0;exitDy=0;entryX=0.5;entryY=0.015;entryDx=0;entryDy=0;entryPerimeter=0;" edge="1" parent="1" source="pXCMp1-Q90rH2oVFQ7kp-43" target="pXCMp1-Q90rH2oVFQ7kp-41">
          <mxGeometry width="50" height="50" relative="1" as="geometry">
            <mxPoint x="627" y="610" as="sourcePoint" />
            <mxPoint x="370" y="600" as="targetPoint" />
          </mxGeometry>
        </mxCell>
        <mxCell id="pXCMp1-Q90rH2oVFQ7kp-46" value="Estratégias&lt;br&gt;Nossa aplicação não depende de uma implementação específica para um banco - relacional ou não - nas nossas api&#39;s usamos um conceito de camadas genericas gerenciadas apenas por DTO&#39;s e controles de autenticação, a conexão com o banco, os processos de query, gerenciamento de sessão e autenticação são tratados em outra classe da aplicação, essa classe é depois injetada nas classes genéricas. Isso permite a troca do banco de dados sem precisar alterar o restante da aplicação." style="shape=callout;whiteSpace=wrap;html=1;perimeter=calloutPerimeter;strokeColor=#A9C4EB;direction=north;position2=0.48;base=19;size=0;position=0.48;" vertex="1" parent="1">
          <mxGeometry x="137.5" y="410" width="265" height="260" as="geometry" />
        </mxCell>
        <mxCell id="pXCMp1-Q90rH2oVFQ7kp-47" value="Model&lt;br&gt;Uma representação de classe da modelagem de dados." style="rounded=1;whiteSpace=wrap;html=1;" vertex="1" parent="1">
          <mxGeometry x="820" y="570" width="159" height="60" as="geometry" />
        </mxCell>
        <mxCell id="pXCMp1-Q90rH2oVFQ7kp-50" value="Authentication Strategy" style="rounded=1;whiteSpace=wrap;html=1;" vertex="1" parent="1">
          <mxGeometry x="440" y="450.00000000000006" width="120" height="60" as="geometry" />
        </mxCell>
        <mxCell id="pXCMp1-Q90rH2oVFQ7kp-52" value="" style="endArrow=classic;html=1;rounded=0;entryX=1;entryY=0.5;entryDx=0;entryDy=0;" edge="1" parent="1" target="pXCMp1-Q90rH2oVFQ7kp-50">
          <mxGeometry width="50" height="50" relative="1" as="geometry">
            <mxPoint x="620" y="480" as="sourcePoint" />
            <mxPoint x="570" y="610" as="targetPoint" />
          </mxGeometry>
        </mxCell>
        <mxCell id="pXCMp1-Q90rH2oVFQ7kp-53" value="" style="endArrow=classic;html=1;rounded=0;entryX=0.5;entryY=0;entryDx=0;entryDy=0;exitX=0.5;exitY=1;exitDx=0;exitDy=0;" edge="1" parent="1" source="pXCMp1-Q90rH2oVFQ7kp-50" target="pXCMp1-Q90rH2oVFQ7kp-43">
          <mxGeometry width="50" height="50" relative="1" as="geometry">
            <mxPoint x="630" y="490" as="sourcePoint" />
            <mxPoint x="570" y="490" as="targetPoint" />
          </mxGeometry>
        </mxCell>
        <mxCell id="pXCMp1-Q90rH2oVFQ7kp-56" value="" style="endArrow=classic;html=1;rounded=0;entryX=0;entryY=0.5;entryDx=0;entryDy=0;" edge="1" parent="1" target="pXCMp1-Q90rH2oVFQ7kp-47">
          <mxGeometry width="50" height="50" relative="1" as="geometry">
            <mxPoint x="760" y="600" as="sourcePoint" />
            <mxPoint x="570" y="610" as="targetPoint" />
          </mxGeometry>
        </mxCell>
        <mxCell id="pXCMp1-Q90rH2oVFQ7kp-59" value="" style="endArrow=none;dashed=1;html=1;rounded=0;entryX=0;entryY=0.5;entryDx=0;entryDy=0;exitX=0.269;exitY=1;exitDx=0;exitDy=0;exitPerimeter=0;" edge="1" parent="1" source="pXCMp1-Q90rH2oVFQ7kp-46" target="pXCMp1-Q90rH2oVFQ7kp-43">
          <mxGeometry width="50" height="50" relative="1" as="geometry">
            <mxPoint x="330" y="570" as="sourcePoint" />
            <mxPoint x="380" y="520" as="targetPoint" />
          </mxGeometry>
        </mxCell>
        <mxCell id="pXCMp1-Q90rH2oVFQ7kp-60" value="" style="endArrow=none;dashed=1;html=1;rounded=0;entryX=0;entryY=0.5;entryDx=0;entryDy=0;exitX=0.731;exitY=0.999;exitDx=0;exitDy=0;exitPerimeter=0;" edge="1" parent="1" source="pXCMp1-Q90rH2oVFQ7kp-46" target="pXCMp1-Q90rH2oVFQ7kp-50">
          <mxGeometry width="50" height="50" relative="1" as="geometry">
            <mxPoint x="415.4150000000001" y="610.32" as="sourcePoint" />
            <mxPoint x="450" y="610" as="targetPoint" />
          </mxGeometry>
        </mxCell>
      </root>
    </mxGraphModel>
  </diagram>
</mxfile>
